<svg version="1.1" id="Layer_1" xmlns="http://www.w3.org/2000/svg" x="0" y="0" viewBox="0 0 267 56" xml:space="preserve"><path class="st0" d="M46.4 0H9.6C4.3 0 0 4.3 0 9.6v36.9C0 51.7 4.3 56 9.6 56h36.9c5.3 0 9.6-4.3 9.6-9.6V9.6C56 4.3 51.7 0 46.4 0zM7.7 48.3V9.6c0-1.1.9-1.9 1.9-1.9h36.9c1.1 0 1.9.9 1.9 1.9v38.8c-9.6-4.8-11.8-13-20.4-13-8.6 0-10.8 8.2-20.3 12.9z"/><path class="st0" d="M17.8 24.2h-5.6c-1.1 0-1.9.9-1.9 1.9 0 1.1.9 1.9 1.9 1.9h5.6c1.1 0 1.9-.9 1.9-1.9 0-1.1-.9-1.9-1.9-1.9zM38.2 28h5.6c1.1 0 1.9-.9 1.9-1.9 0-1.1-.9-1.9-1.9-1.9h-5.6c-1.1 0-1.9.9-1.9 1.9 0 1 .9 1.9 1.9 1.9zM32.7 26.1c0-1.1-.9-1.9-1.9-1.9h-5.6c-1.1 0-1.9.9-1.9 1.9 0 1.1.9 1.9 1.9 1.9h5.6c1.1 0 1.9-.9 1.9-1.9zM74.9 25.2c-1.4 0-2.7-.3-3.8-.8-1.1-.6-2-1.3-2.6-2.3-.6-1-.9-2.1-.9-3.4 0-1.3.3-2.4.9-3.4.6-1 1.5-1.8 2.6-2.3 1.1-.6 2.4-.8 3.8-.8 1.5 0 2.8.3 3.9 1s1.8 1.6 2.3 2.7l-4 2c-.5-1.1-1.2-1.7-2.2-1.7-.6 0-1.1.2-1.5.6-.4.4-.6 1-.6 1.8s.2 1.4.6 1.8c.4.4.9.6 1.5.6 1 0 1.7-.6 2.2-1.7l4 2c-.4 1.2-1.2 2.1-2.3 2.7-1.1.9-2.4 1.2-3.9 1.2zm13.9 0c-1.4 0-2.6-.3-3.8-.8-1.1-.6-2-1.3-2.6-2.3-.6-1-.9-2.1-.9-3.4 0-1.3.3-2.4.9-3.4.6-1 1.5-1.8 2.6-2.3 1.1-.6 2.4-.8 3.8-.8s2.7.3 3.8.8c1.1.6 2 1.3 2.6 2.3.6 1 .9 2.1.9 3.4 0 1.3-.3 2.4-.9 3.4-.6 1-1.5 1.8-2.6 2.3-1.1.6-2.4.8-3.8.8zm0-4c.6 0 1.1-.2 1.5-.6.4-.4.6-1.1.6-1.8 0-.8-.2-1.4-.6-1.8-.4-.4-.9-.6-1.5-.6s-1.1.2-1.5.6c-.4.4-.6 1-.6 1.8s.2 1.4.6 1.8c.4.4.9.6 1.5.6zm22.6-8.8L106.3 25H101l-5.1-12.6h5.3l2.5 6.7 2.7-6.7h5zm.8 0h5.2V25h-5.2V12.4zm2.6-1c-.9 0-1.7-.2-2.3-.7-.6-.5-.8-1.1-.8-1.9 0-.8.3-1.4.8-1.9.6-.5 1.3-.8 2.3-.8.9 0 1.7.2 2.3.7.6.5.8 1.1.8 1.8 0 .8-.3 1.5-.8 2-.6.6-1.4.8-2.3.8zM133.6 8v17h-4.9v-1c-.8.8-1.9 1.3-3.4 1.3-1.1 0-2.1-.3-3.1-.8-.9-.5-1.7-1.3-2.2-2.3-.5-1-.8-2.1-.8-3.4 0-1.3.3-2.4.8-3.4.6-1 1.3-1.8 2.2-2.3.9-.5 2-.8 3.1-.8 1.4 0 2.5.4 3.2 1.1V8h5.1zm-7.2 13.2c.6 0 1.1-.2 1.5-.6.4-.4.6-1.1.6-1.8 0-.8-.2-1.4-.6-1.8-.4-.4-.9-.6-1.5-.6s-1.1.2-1.5.6c-.4.4-.6 1-.6 1.8s.2 1.4.6 1.8c.4.4.9.6 1.5.6zm9.3-4.8h6.9v3.9h-6.9v-3.9zm15.7-7.5V25H146V13h-2.8V8.9h8.2zm8.1-.3c1.5 0 2.9.3 4 .9 1.2.6 2.1 1.5 2.7 2.7.6 1.2 1 2.6 1 4.3 0 1.8-.4 3.4-1.1 4.8-.7 1.3-1.8 2.4-3.1 3.1-1.3.7-2.9 1.1-4.7 1.1-1 0-1.9-.1-2.8-.3-.9-.2-1.6-.5-2.2-.9l2-3.8c.8.6 1.8.8 2.9.8.9 0 1.7-.2 2.3-.7.6-.5 1-1.2 1.2-2-.8.6-1.9.9-3.2.9-1 0-1.9-.2-2.7-.6-.8-.4-1.5-1-2-1.8s-.8-1.7-.8-2.7c0-1.1.3-2.1.8-3 .6-.9 1.4-1.5 2.4-2 1-.6 2.1-.8 3.3-.8zm.3 7c.5 0 .9-.1 1.2-.4.3-.3.5-.7.5-1.2s-.2-.9-.5-1.2c-.3-.3-.7-.4-1.2-.4s-.9.1-1.2.4-.5.7-.5 1.2.2.9.5 1.2c.4.2.8.4 1.2.4zM73.1 48.2c-1.1 0-2.1-.1-3.2-.3-1-.2-1.9-.5-2.5-.9l1.4-3.4c.6.4 1.3.6 2.1.8.8.2 1.6.3 2.3.3.6 0 1 0 1.2-.1.2-.1.4-.3.4-.5s-.2-.3-.5-.4c-.3-.1-.8-.2-1.4-.2-1-.1-1.9-.3-2.6-.5-.7-.2-1.4-.6-1.9-1.1-.5-.6-.8-1.3-.8-2.4 0-.8.2-1.5.7-2.2.5-.6 1.2-1.2 2.2-1.5 1-.4 2.2-.6 3.5-.6.9 0 1.9.1 2.8.3.9.2 1.7.4 2.3.8l-1.4 3.4c-1.1-.6-2.3-.9-3.6-.9-1.1 0-1.7.2-1.7.6 0 .2.2.3.5.4.3.1.8.2 1.4.2 1 .1 1.9.3 2.6.5.7.2 1.3.6 1.9 1.1.6.6.8 1.3.8 2.4 0 .8-.2 1.5-.7 2.1-.5.6-1.2 1.2-2.2 1.5-1.1.4-2.2.6-3.6.6zm21.4-6.5c0 .1 0 .5-.1 1.2h-8.7c.2.5.5.8.9 1.1.4.2 1 .4 1.6.4.6 0 1-.1 1.4-.2.4-.1.8-.4 1.2-.7l2.7 2.7c-1.2 1.3-3.1 2-5.5 2-1.5 0-2.8-.3-4-.8-1.1-.6-2-1.3-2.7-2.3-.6-1-.9-2.1-.9-3.4 0-1.3.3-2.4.9-3.4.6-1 1.5-1.8 2.5-2.3 1.1-.6 2.3-.8 3.7-.8 1.3 0 2.4.3 3.5.8s1.9 1.2 2.5 2.2c.7 1 1 2.1 1 3.5zm-6.9-3c-.5 0-1 .1-1.3.4-.4.3-.6.7-.7 1.2h4c-.1-.5-.3-.9-.7-1.2-.3-.2-.7-.4-1.3-.4zm8.5-7.7h5.2v17h-5.2V31zm13.1 5.1h2.7v3.8h-2.6V48h-5.2v-8.1h-1.7v-3.8h1.7V36c0-1.6.5-2.9 1.5-3.9s2.4-1.4 4.1-1.4c.6 0 1.1.1 1.7.2.6.1 1 .3 1.4.5l-1.2 3.6c-.4-.2-.8-.3-1.2-.3-.4 0-.7.1-.9.4-.2.2-.3.5-.3 1zm16.7-.9c2.2 0 3.9.5 5.1 1.5 1.2 1 1.7 2.5 1.7 4.5V48h-4.8v-1.7c-.6 1.3-1.8 1.9-3.6 1.9-1 0-1.8-.2-2.5-.5-.7-.4-1.2-.8-1.6-1.4-.4-.6-.5-1.3-.5-2 0-1.2.5-2.2 1.4-2.8.9-.6 2.4-1 4.3-1h2.1c-.2-1-1-1.5-2.4-1.5-.6 0-1.1.1-1.7.3-.6.2-1.1.4-1.5.7l-1.7-3.4c.7-.4 1.6-.8 2.6-1 1.1-.3 2.1-.4 3.1-.4zm0 9.9c.4 0 .7-.1 1-.3.3-.2.5-.5.6-.9V43h-1.3c-1.1 0-1.6.4-1.6 1.1 0 .3.1.5.3.7.3.2.6.3 1 .3zm14 3.1c-1.1 0-2.1-.1-3.2-.3-1-.2-1.9-.5-2.5-.9l1.4-3.4c.6.4 1.3.6 2.1.8.8.2 1.6.3 2.3.3.6 0 1 0 1.2-.1.2-.1.4-.3.4-.5s-.2-.3-.5-.4c-.3-.1-.8-.2-1.4-.2-1-.1-1.9-.3-2.6-.5-.7-.2-1.4-.6-1.9-1.1-.5-.6-.8-1.3-.8-2.4 0-.8.2-1.5.7-2.2.5-.6 1.2-1.2 2.2-1.5 1-.4 2.2-.6 3.5-.6.9 0 1.9.1 2.8.3.9.2 1.7.4 2.3.8l-1.4 3.4c-1.1-.6-2.3-.9-3.6-.9-1.1 0-1.7.2-1.7.6 0 .2.2.3.5.4.3.1.8.2 1.4.2 1 .1 1.9.3 2.6.5.7.2 1.3.6 1.9 1.1.6.6.8 1.3.8 2.4 0 .8-.2 1.5-.7 2.1-.5.6-1.2 1.2-2.2 1.5-1 .4-2.2.6-3.6.6zm13 0c-1.1 0-2.1-.1-3.2-.3-1-.2-1.9-.5-2.5-.9l1.4-3.4c.6.4 1.3.6 2.1.8.8.2 1.6.3 2.3.3.6 0 1 0 1.2-.1.2-.1.4-.3.4-.5s-.2-.3-.5-.4c-.3-.1-.8-.2-1.4-.2-1-.1-1.9-.3-2.6-.5-.7-.2-1.4-.6-1.9-1.1-.5-.6-.8-1.3-.8-2.4 0-.8.2-1.5.7-2.2.5-.6 1.2-1.2 2.2-1.5 1-.4 2.2-.6 3.5-.6.9 0 1.9.1 2.8.3.9.2 1.7.4 2.3.8l-1.4 3.4c-1.1-.6-2.3-.9-3.6-.9-1.1 0-1.7.2-1.7.6 0 .2.2.3.5.4.3.1.8.2 1.4.2 1 .1 1.9.3 2.6.5.7.2 1.3.6 1.9 1.1.6.6.8 1.3.8 2.4 0 .8-.2 1.5-.7 2.1-.5.6-1.2 1.2-2.2 1.5-1.1.4-2.2.6-3.6.6zm21.4-6.5c0 .1 0 .5-.1 1.2h-8.7c.2.5.5.8.9 1.1.4.2 1 .4 1.6.4.6 0 1-.1 1.4-.2.4-.1.8-.4 1.2-.7l2.7 2.7c-1.2 1.3-3.1 2-5.5 2-1.5 0-2.8-.3-4-.8-1.1-.6-2-1.3-2.7-2.3-.6-1-.9-2.1-.9-3.4 0-1.3.3-2.4.9-3.4.6-1 1.5-1.8 2.5-2.3 1.1-.6 2.3-.8 3.7-.8 1.3 0 2.4.3 3.5.8s1.9 1.2 2.5 2.2c.7 1 1 2.1 1 3.5zm-6.9-3c-.5 0-1 .1-1.3.4-.4.3-.6.7-.7 1.2h4c-.1-.5-.3-.9-.7-1.2-.3-.2-.7-.4-1.3-.4zm13.5 9.5c-1.1 0-2.1-.1-3.2-.3-1-.2-1.9-.5-2.5-.9l1.4-3.4c.6.4 1.3.6 2.1.8.8.2 1.6.3 2.3.3.6 0 1 0 1.2-.1.2-.1.4-.3.4-.5s-.2-.3-.5-.4c-.3-.1-.8-.2-1.4-.2-1-.1-1.9-.3-2.6-.5-.7-.2-1.4-.6-1.9-1.1-.5-.6-.8-1.3-.8-2.4 0-.8.2-1.5.7-2.2.5-.6 1.2-1.2 2.2-1.5 1-.4 2.2-.6 3.5-.6.9 0 1.9.1 2.8.3.9.2 1.7.4 2.3.8l-1.4 3.4c-1.1-.6-2.3-.9-3.6-.9-1.1 0-1.7.2-1.7.6 0 .2.2.3.5.4.3.1.8.2 1.4.2 1 .1 1.9.3 2.6.5.7.2 1.3.6 1.9 1.1.6.6.8 1.3.8 2.4 0 .8-.2 1.5-.7 2.1-.5.6-1.2 1.2-2.2 1.5-1.1.4-2.3.6-3.6.6zm12.9 0c-1.1 0-2.1-.1-3.2-.3-1-.2-1.9-.5-2.5-.9l1.4-3.4c.6.4 1.3.6 2.1.8.8.2 1.6.3 2.3.3.6 0 1 0 1.2-.1.2-.1.4-.3.4-.5s-.2-.3-.5-.4c-.3-.1-.8-.2-1.4-.2-1-.1-1.9-.3-2.6-.5-.7-.2-1.4-.6-1.9-1.1-.5-.6-.8-1.3-.8-2.4 0-.8.2-1.5.7-2.2.5-.6 1.2-1.2 2.2-1.5 1-.4 2.2-.6 3.5-.6.9 0 1.9.1 2.8.3.9.2 1.7.4 2.3.8l-1.4 3.4c-1.1-.6-2.3-.9-3.6-.9-1.1 0-1.7.2-1.7.6 0 .2.2.3.5.4.3.1.8.2 1.4.2 1 .1 1.9.3 2.6.5.7.2 1.3.6 1.9 1.1.6.6.8 1.3.8 2.4 0 .8-.2 1.5-.7 2.1-.5.6-1.2 1.2-2.2 1.5-1 .4-2.2.6-3.6.6zm24.7-13c1.5 0 2.7.5 3.6 1.4.9.9 1.4 2.3 1.4 4.2V48h-5.2v-6.3c0-1.4-.5-2.2-1.4-2.2-.5 0-.9.2-1.2.6-.3.4-.4.9-.4 1.7V48h-5.2v-6.3c0-1.4-.5-2.2-1.4-2.2-.5 0-.9.2-1.2.6-.3.4-.4.9-.4 1.7V48h-5.2V35.4h4.9v1.2c.9-.9 2.1-1.4 3.6-1.4.8 0 1.6.2 2.3.5.7.3 1.2.8 1.7 1.4.5-.6 1.1-1.1 1.8-1.4.7-.3 1.5-.5 2.3-.5zm20.9 6.5c0 .1 0 .5-.1 1.2h-8.7c.2.5.5.8.9 1.1.4.2 1 .4 1.6.4.6 0 1-.1 1.4-.2.4-.1.8-.4 1.2-.7l2.7 2.7c-1.2 1.3-3.1 2-5.5 2-1.5 0-2.8-.3-4-.8-1.1-.6-2-1.3-2.7-2.3-.6-1-.9-2.1-.9-3.4 0-1.3.3-2.4.9-3.4.6-1 1.5-1.8 2.6-2.3 1.1-.6 2.3-.8 3.7-.8 1.3 0 2.4.3 3.5.8s1.9 1.2 2.5 2.2c.6 1 .9 2.1.9 3.5zm-6.9-3c-.5 0-1 .1-1.3.4-.4.3-.6.7-.7 1.2h4c-.1-.5-.3-.9-.7-1.2-.3-.2-.7-.4-1.3-.4zm17.3-3.5c1.5 0 2.8.5 3.7 1.4.9.9 1.4 2.3 1.4 4.2V48h-5.2v-6.3c0-1.4-.5-2.2-1.5-2.2-.6 0-1.1.2-1.4.6-.4.4-.5 1-.5 1.9v6H241V35.4h4.9v1.2c.5-.5 1.1-.9 1.7-1.1.7-.2 1.4-.3 2.2-.3zm16.6 12.4c-.8.4-1.8.7-3.2.7-1.8 0-3.1-.4-4.1-1.3-.9-.9-1.4-2.1-1.4-3.8V40H256v-3.8h1.7v-3.5h5.2v3.5h2.6V40h-2.6v3.2c0 .4.1.7.3.9.2.2.5.3.8.3.4 0 .8-.1 1.2-.3l1.2 3.5z"/></svg>